<svg width="135" height="135" viewBox="0 0 135 135" fill="none" xmlns="http://www.w3.org/2000/svg">
<circle cx="67.5" cy="67.5" r="67.5" fill="#6C63FF"/>
<path d="M106.887 40H28V102.023H106.887V40Z" fill="#3F3D56"/>
<path d="M66.546 48.4761H47.0847C47.0536 48.4762 47.0228 48.4701 46.9941 48.4582C46.9654 48.4464 46.9393 48.4289 46.9173 48.4069C46.8953 48.385 46.8779 48.3588 46.866 48.3301C46.8541 48.3014 46.848 48.2705 46.848 48.2394C46.848 48.2083 46.8541 48.1775 46.866 48.1487C46.8779 48.12 46.8953 48.0939 46.9173 48.0719C46.9393 48.0499 46.9654 48.0325 46.9941 48.0206C47.0228 48.0087 47.0536 48.0027 47.0847 48.0027H66.546C66.6085 48.0029 66.6685 48.0279 66.7127 48.0722C66.7569 48.1166 66.7817 48.1767 66.7817 48.2394C66.7817 48.3021 66.7569 48.3622 66.7127 48.4066C66.6685 48.451 66.6085 48.476 66.546 48.4761V48.4761Z" fill="#F2F2F2"/>
<path d="M87.8496 51.0796H57.2405C57.1778 51.0796 57.1177 51.0546 57.0735 51.0103C57.0292 50.9659 57.0043 50.9057 57.0043 50.8429C57.0043 50.7801 57.0292 50.7199 57.0735 50.6755C57.1177 50.6312 57.1778 50.6062 57.2405 50.6062H87.8496C87.8806 50.6062 87.9113 50.6123 87.94 50.6242C87.9686 50.6361 87.9946 50.6536 88.0166 50.6755C88.0385 50.6975 88.0559 50.7236 88.0678 50.7523C88.0796 50.781 88.0857 50.8118 88.0857 50.8429C88.0857 50.874 88.0796 50.9048 88.0678 50.9335C88.0559 50.9622 88.0385 50.9883 88.0166 51.0103C87.9946 51.0322 87.9686 51.0497 87.94 51.0616C87.9113 51.0735 87.8806 51.0796 87.8496 51.0796V51.0796Z" fill="#F2F2F2"/>
<path d="M66.6405 53.683H47.1791C47.1165 53.683 47.0564 53.6581 47.0121 53.6137C46.9678 53.5693 46.9429 53.5091 46.9429 53.4464C46.9429 53.3836 46.9678 53.3234 47.0121 53.279C47.0564 53.2346 47.1165 53.2097 47.1791 53.2097H66.6405C66.7031 53.2097 66.7632 53.2346 66.8075 53.279C66.8518 53.3234 66.8767 53.3836 66.8767 53.4464C66.8767 53.5091 66.8518 53.5693 66.8075 53.6137C66.7632 53.6581 66.7031 53.683 66.6405 53.683V53.683Z" fill="#F2F2F2"/>
<path d="M87.8496 53.7304H68.3882C68.3256 53.7304 68.2655 53.7055 68.2212 53.6611C68.1769 53.6167 68.152 53.5565 68.152 53.4937C68.152 53.4309 68.1769 53.3707 68.2212 53.3264C68.2655 53.282 68.3256 53.257 68.3882 53.257H87.8496C87.9122 53.257 87.9723 53.282 88.0166 53.3264C88.0609 53.3707 88.0858 53.4309 88.0858 53.4937C88.0858 53.5565 88.0609 53.6167 88.0166 53.6611C87.9723 53.7055 87.9122 53.7304 87.8496 53.7304V53.7304Z" fill="#F2F2F2"/>
<path d="M66.6877 56.2865H47.2264C47.1637 56.2865 47.1036 56.2616 47.0594 56.2172C47.0151 56.1728 46.9902 56.1126 46.9902 56.0499C46.9902 55.9871 47.0151 55.9269 47.0594 55.8825C47.1036 55.8381 47.1637 55.8132 47.2264 55.8132H66.6877C66.7503 55.8132 66.8104 55.8381 66.8547 55.8825C66.899 55.9269 66.9239 55.9871 66.9239 56.0499C66.9239 56.1126 66.899 56.1728 66.8547 56.2172C66.8104 56.2616 66.7503 56.2865 66.6877 56.2865V56.2865Z" fill="#F2F2F2"/>
<path d="M66.7349 58.89H47.2736C47.211 58.89 47.1509 58.8651 47.1066 58.8207C47.0623 58.7763 47.0374 58.7161 47.0374 58.6533C47.0374 58.5906 47.0623 58.5304 47.1066 58.486C47.1509 58.4416 47.211 58.4167 47.2736 58.4167H66.7349C66.7976 58.4167 66.8577 58.4416 66.9019 58.486C66.9462 58.5304 66.9711 58.5906 66.9711 58.6533C66.9711 58.7161 66.9462 58.7763 66.9019 58.8207C66.8577 58.8651 66.7976 58.89 66.7349 58.89V58.89Z" fill="#F2F2F2"/>
<path d="M75.5681 48.5234H69.9942C69.9316 48.5234 69.8715 48.4985 69.8272 48.4541C69.7829 48.4097 69.7581 48.3495 69.7581 48.2868C69.7581 48.224 69.7829 48.1638 69.8272 48.1194C69.8715 48.075 69.9316 48.0501 69.9942 48.0501H75.5681C75.6308 48.0501 75.6908 48.075 75.7351 48.1194C75.7794 48.1638 75.8043 48.224 75.8043 48.2868C75.8043 48.3495 75.7794 48.4097 75.7351 48.4541C75.6908 48.4985 75.6308 48.5234 75.5681 48.5234V48.5234Z" fill="#F2F2F2"/>
<path d="M75.5681 56.2865H69.9942C69.9316 56.2865 69.8715 56.2616 69.8272 56.2172C69.7829 56.1728 69.7581 56.1126 69.7581 56.0499C69.7581 55.9871 69.7829 55.9269 69.8272 55.8825C69.8715 55.8381 69.9316 55.8132 69.9942 55.8132H75.5681C75.6308 55.8132 75.6908 55.8381 75.7351 55.8825C75.7794 55.9269 75.8043 55.9871 75.8043 56.0499C75.8043 56.1126 75.7794 56.1728 75.7351 56.2172C75.6908 56.2616 75.6308 56.2865 75.5681 56.2865V56.2865Z" fill="#F2F2F2"/>
<path d="M75.5681 58.8427H69.9942C69.9632 58.8427 69.9324 58.8367 69.9037 58.8248C69.875 58.8129 69.8489 58.7955 69.8269 58.7735C69.8049 58.7515 69.7875 58.7254 69.7756 58.6967C69.7637 58.6679 69.7576 58.6371 69.7576 58.606C69.7576 58.5749 69.7637 58.5441 69.7756 58.5153C69.7875 58.4866 69.8049 58.4605 69.8269 58.4385C69.8489 58.4165 69.875 58.3991 69.9037 58.3872C69.9324 58.3753 69.9632 58.3693 69.9942 58.3693H75.5681C75.5992 58.3693 75.63 58.3753 75.6587 58.3872C75.6874 58.3991 75.7135 58.4165 75.7355 58.4385C75.7574 58.4605 75.7749 58.4866 75.7868 58.5153C75.7987 58.5441 75.8048 58.5749 75.8048 58.606C75.8048 58.6371 75.7987 58.6679 75.7868 58.6967C75.7749 58.7254 75.7574 58.7515 75.7355 58.7735C75.7135 58.7955 75.6874 58.8129 75.6587 58.8248C75.63 58.8367 75.5992 58.8427 75.5681 58.8427V58.8427Z" fill="#F2F2F2"/>
<path d="M84.9209 58.8427H79.347C79.2845 58.8425 79.2245 58.8175 79.1803 58.7732C79.1362 58.7288 79.1113 58.6687 79.1113 58.606C79.1113 58.5433 79.1362 58.4832 79.1803 58.4388C79.2245 58.3945 79.2845 58.3695 79.347 58.3693H84.9209C84.952 58.3693 84.9827 58.3753 85.0114 58.3872C85.0402 58.3991 85.0662 58.4165 85.0882 58.4385C85.1102 58.4605 85.1277 58.4866 85.1396 58.5153C85.1515 58.5441 85.1576 58.5749 85.1576 58.606C85.1576 58.6371 85.1515 58.6679 85.1396 58.6967C85.1277 58.7254 85.1102 58.7515 85.0882 58.7735C85.0662 58.7955 85.0402 58.8129 85.0114 58.8248C84.9827 58.8367 84.952 58.8427 84.9209 58.8427V58.8427Z" fill="#F2F2F2"/>
<path d="M52.6113 51.0796H47.0374C46.9748 51.0796 46.9147 51.0546 46.8704 51.0103C46.8261 50.9659 46.8012 50.9057 46.8012 50.8429C46.8012 50.7801 46.8261 50.7199 46.8704 50.6755C46.9147 50.6312 46.9748 50.6062 47.0374 50.6062H52.6113C52.6739 50.6062 52.734 50.6312 52.7783 50.6755C52.8226 50.7199 52.8475 50.7801 52.8475 50.8429C52.8475 50.9057 52.8226 50.9659 52.7783 51.0103C52.734 51.0546 52.6739 51.0796 52.6113 51.0796V51.0796Z" fill="#F2F2F2"/>
<path d="M66.5696 86.8183H47.1083C47.0456 86.8183 46.9856 86.7933 46.9413 86.7489C46.897 86.7045 46.8721 86.6443 46.8721 86.5816C46.8721 86.5188 46.897 86.4586 46.9413 86.4142C46.9856 86.3698 47.0456 86.3449 47.1083 86.3449H66.5696C66.6323 86.3449 66.6923 86.3698 66.7366 86.4142C66.7809 86.4586 66.8058 86.5188 66.8058 86.5816C66.8058 86.6443 66.7809 86.7045 66.7366 86.7489C66.6923 86.7933 66.6323 86.8183 66.5696 86.8183Z" fill="#F2F2F2"/>
<path d="M66.4751 92.0252H47.0138C46.9512 92.0252 46.8911 92.0003 46.8468 91.9559C46.8025 91.9115 46.7776 91.8513 46.7776 91.7885C46.7776 91.7258 46.8025 91.6656 46.8468 91.6212C46.8911 91.5768 46.9512 91.5518 47.0138 91.5518H66.4751C66.5378 91.5518 66.5979 91.5768 66.6421 91.6212C66.6864 91.6656 66.7113 91.7258 66.7113 91.7885C66.7113 91.8513 66.6864 91.9115 66.6421 91.9559C66.5979 92.0003 66.5378 92.0252 66.4751 92.0252Z" fill="#F2F2F2"/>
<path d="M66.5224 94.6287H47.061C47.03 94.6287 46.9992 94.6227 46.9705 94.6108C46.9418 94.5989 46.9157 94.5815 46.8937 94.5595C46.8717 94.5376 46.8543 94.5114 46.8424 94.4827C46.8305 94.4539 46.8243 94.4231 46.8243 94.392C46.8243 94.3609 46.8305 94.3301 46.8424 94.3013C46.8543 94.2726 46.8717 94.2465 46.8937 94.2245C46.9157 94.2025 46.9418 94.1851 46.9705 94.1732C46.9992 94.1613 47.03 94.1553 47.061 94.1553H66.5224C66.5534 94.1553 66.5842 94.1613 66.6129 94.1732C66.6416 94.1851 66.6677 94.2025 66.6897 94.2245C66.7117 94.2465 66.7291 94.2726 66.741 94.3013C66.7529 94.3301 66.7591 94.3609 66.7591 94.392C66.7591 94.4231 66.7529 94.4539 66.741 94.4827C66.7291 94.5114 66.7117 94.5376 66.6897 94.5595C66.6677 94.5815 66.6416 94.5989 66.6129 94.6108C66.5842 94.6227 66.5534 94.6287 66.5224 94.6287V94.6287Z" fill="#F2F2F2"/>
<path d="M74.836 92.0726H69.2621C69.1995 92.0726 69.1394 92.0476 69.0951 92.0032C69.0508 91.9588 69.0259 91.8987 69.0259 91.8359C69.0259 91.7731 69.0508 91.7129 69.0951 91.6685C69.1394 91.6241 69.1995 91.5992 69.2621 91.5992H74.836C74.8986 91.5992 74.9587 91.6241 75.003 91.6685C75.0473 91.7129 75.0722 91.7731 75.0722 91.8359C75.0722 91.8987 75.0473 91.9588 75.003 92.0032C74.9587 92.0476 74.8986 92.0726 74.836 92.0726Z" fill="#F2F2F2"/>
<path d="M74.836 94.6287H69.2621C69.1995 94.6287 69.1394 94.6038 69.0951 94.5594C69.0508 94.515 69.0259 94.4548 69.0259 94.392C69.0259 94.3292 69.0508 94.269 69.0951 94.2247C69.1394 94.1803 69.1995 94.1553 69.2621 94.1553H74.836C74.8986 94.1553 74.9587 94.1803 75.003 94.2247C75.0473 94.269 75.0722 94.3292 75.0722 94.392C75.0722 94.4548 75.0473 94.515 75.003 94.5594C74.9587 94.6038 74.8986 94.6287 74.836 94.6287V94.6287Z" fill="#F2F2F2"/>
<path d="M84.1887 92.0726H78.6149C78.5522 92.0726 78.4922 92.0476 78.4479 92.0032C78.4036 91.9588 78.3787 91.8987 78.3787 91.8359C78.3787 91.7731 78.4036 91.7129 78.4479 91.6685C78.4922 91.6241 78.5522 91.5992 78.6149 91.5992H84.1887C84.2514 91.5992 84.3115 91.6241 84.3557 91.6685C84.4 91.7129 84.4249 91.7731 84.4249 91.8359C84.4249 91.8987 84.4 91.9588 84.3557 92.0032C84.3115 92.0476 84.2514 92.0726 84.1887 92.0726V92.0726Z" fill="#F2F2F2"/>
<path d="M87.8732 89.4217H57.2641C57.2014 89.4217 57.1414 89.3968 57.0971 89.3524C57.0528 89.308 57.0279 89.2478 57.0279 89.1851C57.0279 89.1223 57.0528 89.0621 57.0971 89.0177C57.1414 88.9733 57.2014 88.9484 57.2641 88.9484H87.8732C87.9358 88.9484 87.9959 88.9733 88.0402 89.0177C88.0845 89.0621 88.1094 89.1223 88.1094 89.1851C88.1094 89.2478 88.0845 89.308 88.0402 89.3524C87.9959 89.3968 87.9358 89.4217 87.8732 89.4217V89.4217Z" fill="#F2F2F2"/>
<path d="M52.6349 89.4217H47.061C46.9984 89.4217 46.9383 89.3968 46.894 89.3524C46.8497 89.308 46.8249 89.2478 46.8249 89.1851C46.8249 89.1223 46.8497 89.0621 46.894 89.0177C46.9383 88.9733 46.9984 88.9484 47.061 88.9484H52.6349C52.6976 88.9484 52.7576 88.9733 52.8019 89.0177C52.8462 89.0621 52.8711 89.1223 52.8711 89.1851C52.8711 89.2478 52.8462 89.308 52.8019 89.3524C52.7576 89.3968 52.6976 89.4217 52.6349 89.4217V89.4217Z" fill="#F2F2F2"/>
<path d="M87.8732 97.2795H57.2641C57.233 97.2796 57.2023 97.2735 57.1735 97.2616C57.1448 97.2498 57.1187 97.2324 57.0967 97.2104C57.0748 97.1884 57.0573 97.1623 57.0454 97.1335C57.0335 97.1048 57.0274 97.074 57.0274 97.0428C57.0274 97.0117 57.0335 96.9809 57.0454 96.9521C57.0573 96.9234 57.0748 96.8973 57.0967 96.8753C57.1187 96.8533 57.1448 96.8359 57.1735 96.824C57.2023 96.8122 57.233 96.8061 57.2641 96.8062H87.8732C87.9358 96.8062 87.9959 96.8311 88.0402 96.8755C88.0845 96.9199 88.1094 96.9801 88.1094 97.0428C88.1094 97.1056 88.0845 97.1658 88.0402 97.2102C87.9959 97.2546 87.9358 97.2795 87.8732 97.2795V97.2795Z" fill="#F2F2F2"/>
<path d="M52.6349 97.2795H47.061C47.03 97.2796 46.9992 97.2735 46.9705 97.2616C46.9418 97.2498 46.9157 97.2324 46.8937 97.2104C46.8717 97.1884 46.8543 97.1623 46.8424 97.1335C46.8305 97.1048 46.8243 97.074 46.8243 97.0428C46.8243 97.0117 46.8305 96.9809 46.8424 96.9521C46.8543 96.9234 46.8717 96.8973 46.8937 96.8753C46.9157 96.8533 46.9418 96.8359 46.9705 96.824C46.9992 96.8122 47.03 96.8061 47.061 96.8062H52.6349C52.666 96.8061 52.6967 96.8122 52.7254 96.824C52.7542 96.8359 52.7803 96.8533 52.8022 96.8753C52.8242 96.8973 52.8417 96.9234 52.8536 96.9521C52.8655 96.9809 52.8716 97.0117 52.8716 97.0428C52.8716 97.074 52.8655 97.1048 52.8536 97.1335C52.8417 97.1623 52.8242 97.1884 52.8022 97.2104C52.7803 97.2324 52.7542 97.2498 52.7254 97.2616C52.6967 97.2735 52.666 97.2796 52.6349 97.2795Z" fill="#F2F2F2"/>
<path d="M61.8696 65.1384L54.3118 72.6175L61.8696 80.0965L63.5701 78.3925L57.8546 72.6648L63.6173 66.8898L61.8696 65.1384Z" fill="#6C63FF"/>
<path d="M73.0174 65.1384L80.5752 72.6175L73.0174 80.0965L71.3169 78.3925L77.0325 72.6648L71.2697 66.8898L73.0174 65.1384Z" fill="#6C63FF"/>
<path d="M30.0981 42.523C30.6195 42.523 31.0422 42.0994 31.0422 41.5769C31.0422 41.0543 30.6195 40.6308 30.0981 40.6308C29.5766 40.6308 29.1539 41.0543 29.1539 41.5769C29.1539 42.0994 29.5766 42.523 30.0981 42.523Z" fill="#6C63FF"/>
<path d="M32.6157 42.523C33.1372 42.523 33.5599 42.0994 33.5599 41.5769C33.5599 41.0543 33.1372 40.6308 32.6157 40.6308C32.0943 40.6308 31.6716 41.0543 31.6716 41.5769C31.6716 42.0994 32.0943 42.523 32.6157 42.523Z" fill="#6C63FF"/>
<path d="M35.1334 42.523C35.6548 42.523 36.0775 42.0994 36.0775 41.5769C36.0775 41.0543 35.6548 40.6308 35.1334 40.6308C34.612 40.6308 34.1893 41.0543 34.1893 41.5769C34.1893 42.0994 34.612 42.523 35.1334 42.523Z" fill="#6C63FF"/>
<path opacity="0.1" d="M106.887 43.1537H28V43.4691H106.887V43.1537Z" fill="black"/>
</svg>
